<svg width="494" height="375" viewBox="0 0 494 375" fill="none" xmlns="http://www.w3.org/2000/svg">
<path d="M97.4988 3.81412C97.4988 3.81412 95.7822 10.5116 107.78 29.4432C119.777 48.3747 118.944 51.0564 118.251 56.47C117.559 61.8836 117.6 64.8476 110.63 71.495C110.63 71.495 89.7449 78.3519 86.9539 82.6272C84.1629 86.9025 91.5661 102.447 91.5661 102.447C91.5661 102.447 98.678 121.328 73.14 128.572C73.14 128.572 53.1567 128.599 47.6157 133.002C47.6157 133.002 49.7601 125.339 43.0945 114.07C36.4289 102.802 45.6123 91.8152 45.6123 91.8152C45.6123 91.8152 53.0065 87.7448 57.7006 87.4306C62.3948 87.1165 63.8837 84.9675 60.865 79.5721C60.865 79.5721 56.4986 77.2956 50.4522 82.1719C44.4058 87.0482 39.8892 90.5222 34.6213 90.1124C29.3534 89.7026 21.8409 87.4807 16.91 77.7327C11.979 67.9846 9.38381 54.2026 5.6913 47.9103C1.99878 41.618 0 40.2384 0 40.2384C0 40.2384 4.66686 43.7807 20.7801 31.7561C36.8933 19.7315 45.3027 24.8765 45.3027 24.8765C45.3027 24.8765 58.2516 28.355 60.3277 51.1885C60.3277 51.1885 64.0931 72.9474 71.7468 59.7664C71.7468 59.7664 69.1561 52.3449 63.9793 41.4177C58.8025 30.4904 72.6574 20.2051 82.8015 16.763C92.9457 13.3209 97.4988 3.81412 97.4988 3.81412Z" fill="#4796BD"/>
<path d="M14.1099 45.0601L14.0643 44.9462C17.2515 43.6168 31.9532 51.58 43.7092 58.4961L43.6454 58.6008C27.0633 48.8482 16.5731 44.0402 14.1099 45.0601Z" fill="#444053"/>
<path d="M43.4041 58.4505L43.5315 58.3822C52.9199 63.9142 64.1841 70.935 72.6209 76.6354C73.4222 77.1772 74.2554 77.7144 75.1069 78.2198L74.9748 78.4338C74.1234 77.9239 73.2856 77.3866 72.4798 76.8402C64.0521 71.1444 52.7879 63.9779 43.4041 58.4505Z" fill="#444053"/>
<path d="M74.729 78.2972L74.9384 78.1333C91.8621 88.2911 115.67 85.8735 115.879 85.8735L113.252 88.8557C113.043 88.8694 91.771 88.5233 74.729 78.2972Z" fill="#444053"/>
<path d="M91.1428 19.1169C91.1428 19.1169 85.6017 34.5471 89.8133 45.4198C94.0248 56.2924 85.2602 83.2327 85.2602 83.2327C85.2602 83.2327 82.3508 94.5652 77.6703 97.3972C77.6703 97.3972 70.8817 105.825 66.9024 106.79C62.923 107.755 53.7714 116.306 54.0127 121.037" stroke="#444053" stroke-width="0.455304" stroke-miterlimit="10"/>
<path d="M98.637 20.205C98.637 20.205 94.7305 28.1273 88.9163 28.059" stroke="#444053" stroke-width="0.455304" stroke-miterlimit="10"/>
<path d="M106.468 30.504C106.468 30.504 104.105 41.3994 89.4672 44.4454" stroke="#444053" stroke-width="0.455304" stroke-miterlimit="10"/>
<path d="M112.565 46.7401C112.565 46.7401 105.676 57.7767 90.8331 56.4335" stroke="#444053" stroke-width="0.455304" stroke-miterlimit="10"/>
<path d="M111.276 67.4155C111.276 67.4155 98.3137 75.9069 88.511 71.2446" stroke="#444053" stroke-width="0.455304" stroke-miterlimit="10"/>
<path d="M81.9819 20.205C81.9819 20.205 85.3694 27.3715 89.1165 25.2134" stroke="#444053" stroke-width="0.455304" stroke-miterlimit="10"/>
<path d="M69.5796 31.0913C69.5796 31.0913 74.1326 40.7074 88.3791 39.0182" stroke="#444053" stroke-width="0.455304" stroke-miterlimit="10"/>
<path d="M68.2046 45.5518C68.2046 45.5518 80.7346 53.1645 90.8969 51.102" stroke="#444053" stroke-width="0.455304" stroke-miterlimit="10"/>
<path d="M74.8019 60.9639C74.8019 60.9639 84.7184 68.8725 89.3716 67.0558" stroke="#444053" stroke-width="0.455304" stroke-miterlimit="10"/>
<path d="M72.4797 66.86C72.4797 66.86 75.1615 75.1693 72.5253 76.7401" stroke="#444053" stroke-width="0.455304" stroke-miterlimit="10"/>
<path d="M63.697 79.3217C63.697 79.3217 68.8101 74.245 67.385 73.3117" stroke="#444053" stroke-width="0.455304" stroke-miterlimit="10"/>
<path d="M54.3042 37.1514C54.3042 37.1514 58.7798 58.4096 52.9656 64.1464" stroke="#444053" stroke-width="0.455304" stroke-miterlimit="10"/>
<path d="M35.5911 87.7311C35.5911 87.7311 55.8475 74.7231 57.6141 67.0376" stroke="#444053" stroke-width="0.455304" stroke-miterlimit="10"/>
<path d="M23.8579 78.5613C23.8579 78.5613 42.9124 69.6783 48.0801 61.1687" stroke="#444053" stroke-width="0.455304" stroke-miterlimit="10"/>
<path d="M36.652 30.3401C36.652 30.3401 45.8719 45.7203 40.1123 56.4837" stroke="#444053" stroke-width="0.341478" stroke-miterlimit="10"/>
<path d="M17.6431 64.5926C17.6431 64.5926 31.7575 58.8785 34.6122 53.3739" stroke="#444053" stroke-width="0.341478" stroke-miterlimit="10"/>
<path d="M20.6207 35.0298C20.6207 35.0298 25.3422 43.7352 23.1431 47.5187" stroke="#444053" stroke-width="0.341478" stroke-miterlimit="10"/>
<path d="M69.5386 86.5337C69.5386 86.5337 82.2871 84.8263 83.653 88.1546" stroke="#444053" stroke-width="0.455304" stroke-miterlimit="10"/>
<path d="M89.9225 112.659C89.9225 112.659 89.235 98.7176 81.2717 93.3268" stroke="#444053" stroke-width="0.455304" stroke-miterlimit="10"/>
<path d="M54.9642 92.143C54.9642 92.143 68.3456 93.7229 73.0762 102.451" stroke="#444053" stroke-width="0.455304" stroke-miterlimit="10"/>
<path d="M77.4062 122.771C77.4062 122.771 79.4732 112.559 69.6979 105.338" stroke="#444053" stroke-width="0.455304" stroke-miterlimit="10"/>
<path d="M45.3254 104.482C45.3254 104.482 56.4257 103.913 62.372 109.19" stroke="#444053" stroke-width="0.455304" stroke-miterlimit="10"/>
<path d="M60.6238 124.67C60.6238 124.67 59.5857 116.566 56.6899 115.031" stroke="#444053" stroke-width="0.455304" stroke-miterlimit="10"/>
<path opacity="0.1" d="M232.792 89.8665C207.81 102.437 180.487 107.919 153.847 112.145C127.207 116.37 100.317 119.625 74.0643 128.458C57.1817 134.14 39.3383 143.342 31.0154 157.638C22.9929 171.366 25.9569 186.004 30.2004 198.762C33.3875 208.355 37.4852 218.062 46.2088 223.926C52.2735 227.997 60.1457 229.904 66.7567 233.369C89.7541 245.412 93.483 273.659 89.7769 299.643C88.0376 311.832 85.0508 324.179 85.0918 336.127C85.1328 348.074 88.5794 359.912 98.0588 366.969C107.456 373.962 121.566 375.383 135.394 374.254C163.491 371.977 191.742 360.326 218.651 347.805C278.232 320.091 335.304 287.049 392.244 254.09C413.307 241.892 434.465 229.636 453.856 215.189C464.624 207.166 475.255 197.951 480.227 186.924C486.56 172.928 481.73 157.679 468.963 151.383C447.564 140.82 411.786 154.747 393.332 140.952C383.138 133.357 381.809 119.461 383.471 106.417C387.031 78.3883 401.746 47.4959 390.514 23.7792C382.801 7.4884 362.504 -1.99102 340.34 0.35379C317.119 2.81243 291.385 18.0788 284.465 38.6585C277.353 59.8529 254.852 78.7434 232.792 89.8665Z" fill="#4796BD"/>
<path opacity="0.1" d="M292.687 357.89C317.861 357.89 338.268 352.849 338.268 346.631C338.268 340.412 317.861 335.371 292.687 335.371C267.514 335.371 247.107 340.412 247.107 346.631C247.107 352.849 267.514 357.89 292.687 357.89Z" fill="#4796BD"/>
<path d="M488.313 61.7879H66.998C63.8573 61.7879 61.3113 64.334 61.3113 67.4747V301.205C61.3113 304.346 63.8573 306.892 66.998 306.892H488.313C491.454 306.892 494 304.346 494 301.205V67.4747C494 64.334 491.454 61.7879 488.313 61.7879Z" fill="url(#paint0_linear)"/>
<path d="M487.676 65.2346H67.6854C64.5447 65.2346 61.9987 67.7806 61.9987 70.9213V300.39C61.9987 303.531 64.5447 306.077 67.6854 306.077H487.676C490.816 306.077 493.363 303.531 493.363 300.39V70.9213C493.363 67.7806 490.816 65.2346 487.676 65.2346Z" fill="white"/>
<path d="M487.676 65.2346H67.6854C64.5447 65.2346 61.9987 67.7806 61.9987 70.9213V300.39C61.9987 303.531 64.5447 306.077 67.6854 306.077H487.676C490.816 306.077 493.363 303.531 493.363 300.39V70.9213C493.363 67.7806 490.816 65.2346 487.676 65.2346Z" fill="white"/>
<path opacity="0.04" d="M487.676 65.2346H67.6854C64.5447 65.2346 61.9987 67.7806 61.9987 70.9213V300.39C61.9987 303.531 64.5447 306.077 67.6854 306.077H487.676C490.816 306.077 493.363 303.531 493.363 300.39V70.9213C493.363 67.7806 490.816 65.2346 487.676 65.2346Z" fill="#5A5773"/>
<path d="M491.177 62.4709H64.1933C63.6125 62.4709 63.0554 62.7016 62.6447 63.1123C62.234 63.523 62.0033 64.0801 62.0033 64.6609V73.9309H493.367V64.6609C493.367 64.0801 493.136 63.523 492.726 63.1123C492.315 62.7016 491.758 62.4709 491.177 62.4709Z" fill="#5A5773"/>
<path d="M70.613 71.1535C72.2475 71.1535 73.5725 69.8285 73.5725 68.1941C73.5725 66.5596 72.2475 65.2346 70.613 65.2346C68.9786 65.2346 67.6536 66.5596 67.6536 68.1941C67.6536 69.8285 68.9786 71.1535 70.613 71.1535Z" fill="white"/>
<path d="M78.5808 71.1536C80.2153 71.1536 81.5403 69.8286 81.5403 68.1941C81.5403 66.5596 80.2153 65.2346 78.5808 65.2346C76.9463 65.2346 75.6213 66.5596 75.6213 68.1941C75.6213 69.8286 76.9463 71.1536 78.5808 71.1536Z" fill="white"/>
<path d="M86.5487 71.1536C88.1832 71.1536 89.5082 69.8286 89.5082 68.1941C89.5082 66.5596 88.1832 65.2346 86.5487 65.2346C84.9142 65.2346 83.5892 66.5596 83.5892 68.1941C83.5892 69.8286 84.9142 71.1536 86.5487 71.1536Z" fill="white"/>
<path opacity="0.1" d="M445.924 127.242H95.5136C92.9512 127.242 90.874 129.32 90.874 131.882V261.015C90.874 263.578 92.9512 265.655 95.5136 265.655H445.924C448.487 265.655 450.564 263.578 450.564 261.015V131.882C450.564 129.32 448.487 127.242 445.924 127.242Z" fill="#4796BD"/>
<path d="M454.578 122.759L104.281 113.831C101.72 113.765 99.5903 115.789 99.525 118.35L96.2348 247.442C96.1695 250.003 98.1931 252.133 100.755 252.198L451.052 261.126C453.613 261.191 455.743 259.168 455.808 256.606L459.098 127.515C459.163 124.953 457.14 122.824 454.578 122.759Z" fill="white"/>
<path opacity="0.2" d="M153.446 143.082L404.009 149.452" stroke="#5A5773" stroke-width="0.455304" stroke-miterlimit="10"/>
<path opacity="0.2" d="M152.95 162.656L403.513 169.026" stroke="#5A5773" stroke-width="0.455304" stroke-miterlimit="10"/>
<path opacity="0.2" d="M152.454 182.225L403.017 188.595" stroke="#5A5773" stroke-width="0.455304" stroke-miterlimit="10"/>
<path opacity="0.2" d="M151.953 201.798L402.52 208.168" stroke="#5A5773" stroke-width="0.455304" stroke-miterlimit="10"/>
<path opacity="0.2" d="M174.727 197.063L174.094 221.946" stroke="#5A5773" stroke-width="0.455304" stroke-miterlimit="10" stroke-dasharray="5.46 5.46"/>
<path opacity="0.2" d="M151.457 221.372L402.02 227.737" stroke="#5A5773" stroke-width="0.455304" stroke-miterlimit="10"/>
<path opacity="0.2" d="M202.433 222.665L203.375 185.571" stroke="#5A5773" stroke-width="0.455304" stroke-miterlimit="10" stroke-dasharray="5.46 5.46"/>
<path opacity="0.2" d="M368.186 182.639C363.719 183.026 359.358 180.522 356.685 177.89C353.917 175.159 351.909 171.798 349.969 168.529C349.355 167.496 348.717 166.43 348.075 165.401C344.692 160.038 341.314 156.432 337.448 154.051C336.032 153.178 334.514 152.484 332.927 151.984C332.775 152.345 332.557 152.675 332.285 152.958C331.701 153.567 330.898 153.919 330.054 153.937H329.904C329.147 153.916 328.422 153.627 327.859 153.121C327.295 152.614 326.931 151.924 326.831 151.173C325.397 151.241 323.982 151.531 322.637 152.034C318.663 153.532 315.644 156.751 312.898 159.924C309.575 163.758 306.369 167.778 303.383 171.88C302.776 172.709 302.168 173.542 301.561 174.38C298.32 178.906 294.969 183.582 290.634 187.238C284.815 192.173 277.817 194.3 271.912 192.929C264.827 191.285 259.76 185.025 256.14 179.753C255.685 179.07 255.23 178.387 254.738 177.69C251.36 172.682 247.867 167.505 242.713 164.486C235.925 160.502 226.55 161.19 220.404 166.112C217.408 168.511 215.158 171.771 212.978 174.922C212.231 176.005 211.457 177.125 210.66 178.2C206.562 183.705 202.433 186.691 197.98 187.338C196.214 187.534 194.432 187.534 192.666 187.338C191.492 187.256 190.276 187.165 189.088 187.197C186.123 187.323 183.241 188.215 180.723 189.784C178.204 191.353 176.134 193.547 174.714 196.153L174.085 222.36L370.918 227.368L372.02 184.01C371.682 184.193 371.31 184.303 370.927 184.333C370.544 184.363 370.159 184.312 369.798 184.183C369.436 184.054 369.105 183.851 368.828 183.585C368.55 183.32 368.331 182.999 368.186 182.644V182.639Z" fill="#4796BD"/>
<path opacity="0.2" d="M233.093 161.896L231.531 223.407" stroke="#5A5773" stroke-width="0.455304" stroke-miterlimit="10" stroke-dasharray="5.46 5.46"/>
<path opacity="0.2" d="M260.543 185.43L259.56 224.117" stroke="#5A5773" stroke-width="0.455304" stroke-miterlimit="10" stroke-dasharray="5.46 5.46"/>
<path opacity="0.2" d="M287.843 189.97L286.96 224.814" stroke="#5A5773" stroke-width="0.455304" stroke-miterlimit="10" stroke-dasharray="5.46 5.46"/>
<path opacity="0.2" d="M314.337 158.786L312.643 225.465" stroke="#5A5773" stroke-width="0.455304" stroke-miterlimit="10" stroke-dasharray="5.46 5.46"/>
<path opacity="0.2" d="M341.3 156.459L339.529 226.153" stroke="#5A5773" stroke-width="0.455304" stroke-miterlimit="10" stroke-dasharray="5.46 5.46"/>
<path opacity="0.2" d="M371.164 182.662L370.034 226.927" stroke="#5A5773" stroke-width="0.455304" stroke-miterlimit="10" stroke-dasharray="5.46 5.46"/>
<path d="M332.654 148.91C332.352 148.62 331.995 148.392 331.604 148.24C331.214 148.087 330.797 148.013 330.378 148.022C329.627 148.036 328.905 148.315 328.339 148.809C327.774 149.302 327.401 149.98 327.286 150.722C327.258 150.903 327.246 151.086 327.25 151.269C327.25 151.392 327.25 151.515 327.277 151.633C327.374 152.346 327.709 153.006 328.229 153.504C328.794 154.067 329.553 154.393 330.35 154.415H330.5C331.345 154.399 332.149 154.049 332.736 153.441C333.007 153.157 333.224 152.827 333.378 152.466C333.497 152.183 333.574 151.884 333.606 151.578C333.617 151.441 333.617 151.302 333.606 151.164C333.603 150.744 333.518 150.329 333.355 149.942C333.191 149.555 332.953 149.205 332.654 148.91ZM332.495 152.188C332.393 152.41 332.253 152.612 332.08 152.785C331.789 153.085 331.421 153.3 331.016 153.405C330.611 153.51 330.185 153.501 329.785 153.38C329.384 153.258 329.025 153.029 328.747 152.717C328.468 152.405 328.281 152.022 328.206 151.61C328.181 151.492 328.167 151.372 328.165 151.251C328.16 151.067 328.178 150.883 328.219 150.704C328.331 150.207 328.607 149.763 329.001 149.441C329.396 149.119 329.887 148.938 330.396 148.929H330.5C331.085 148.944 331.642 149.183 332.055 149.598C332.468 150.012 332.705 150.57 332.718 151.155C332.718 151.2 332.718 151.251 332.718 151.296C332.71 151.606 332.634 151.911 332.495 152.188Z" fill="#4796BD"/>
<path d="M371.191 184.797C372.7 184.797 373.923 183.574 373.923 182.066C373.923 180.557 372.7 179.334 371.191 179.334C369.682 179.334 368.459 180.557 368.459 182.066C368.459 183.574 369.682 184.797 371.191 184.797Z" fill="#4796BD"/>
<path d="M328.165 151.251C328.167 151.371 328.181 151.492 328.206 151.61C327.896 151.61 327.587 151.61 327.295 151.633C325.86 151.702 324.444 151.992 323.097 152.494C319.122 153.991 316.104 157.21 313.354 160.384C310.03 164.213 306.825 168.238 303.833 172.336C303.228 173.164 302.631 174.002 302.012 174.84C298.766 179.366 295.415 184.037 291.085 187.698C285.262 192.629 278.259 194.755 272.349 193.384C265.274 191.745 260.206 185.48 256.564 180.208C256.108 179.529 255.626 178.842 255.161 178.145C251.778 173.137 248.282 167.96 243.128 164.942C236.339 160.958 226.955 161.645 220.818 166.567C217.863 168.962 215.586 172.222 213.405 175.373C212.654 176.456 211.88 177.581 211.083 178.651C206.986 184.155 202.852 187.142 198.399 187.789C196.633 187.982 194.851 187.982 193.085 187.789C191.894 187.68 190.698 187.633 189.502 187.648C186.325 187.78 183.247 188.791 180.611 190.569C177.975 192.348 175.885 194.823 174.573 197.719L173.735 197.355C175.12 194.302 177.324 191.694 180.103 189.819C182.882 187.945 186.126 186.878 189.475 186.737C190.703 186.719 191.931 186.768 193.154 186.883C194.853 187.067 196.567 187.067 198.267 186.883C202.469 186.277 206.421 183.404 210.35 178.104C211.138 177.043 211.908 175.928 212.654 174.849C214.872 171.662 217.166 168.334 220.262 165.848C223.545 163.28 227.517 161.748 231.673 161.445C235.829 161.143 239.982 162.084 243.601 164.149C248.937 167.277 252.493 172.541 255.935 177.635C256.391 178.318 256.846 179.001 257.333 179.689C260.862 184.825 265.779 190.921 272.568 192.492C278.195 193.799 284.902 191.745 290.507 186.996C294.736 183.413 298.065 178.801 301.275 174.303C301.871 173.465 302.477 172.627 303.096 171.794C306.105 167.696 309.324 163.635 312.657 159.778C315.485 156.518 318.576 153.208 322.769 151.638C324.222 151.101 325.748 150.794 327.295 150.727C327.6 150.727 327.914 150.7 328.206 150.727C328.171 150.899 328.157 151.075 328.165 151.251Z" fill="#4796BD"/>
<path d="M371.35 182.494C366.01 184.488 360.364 181.51 357.149 178.35C354.381 175.618 352.373 172.254 350.434 168.985C349.819 167.956 349.182 166.886 348.535 165.861C345.152 160.493 341.774 156.887 337.904 154.506C336.487 153.636 334.968 152.943 333.382 152.443C333.091 152.348 332.795 152.266 332.472 152.188C332.61 151.912 332.686 151.609 332.695 151.301C332.995 151.378 333.291 151.465 333.606 151.556C335.279 152.08 336.88 152.811 338.373 153.732C342.37 156.186 345.84 159.883 349.3 165.374C349.951 166.412 350.588 167.482 351.212 168.525C353.124 171.739 355.1 175.068 357.782 177.699C360.801 180.668 366.087 183.486 371.027 181.642L371.35 182.494Z" fill="#4796BD"/>
<path opacity="0.5" d="M162.419 139.226L153.953 139.01C153.727 139.005 153.539 139.183 153.533 139.41L153.45 142.687C153.444 142.913 153.623 143.101 153.849 143.107L162.315 143.322C162.541 143.328 162.729 143.15 162.735 142.923L162.818 139.646C162.824 139.42 162.645 139.232 162.419 139.226Z" fill="#4796BD"/>
<path d="M161.916 158.794L153.45 158.578C153.224 158.573 153.036 158.751 153.03 158.978L152.947 162.255C152.941 162.481 153.12 162.669 153.346 162.675L161.812 162.891C162.038 162.896 162.226 162.718 162.232 162.491L162.315 159.214C162.321 158.988 162.142 158.8 161.916 158.794Z" fill="#4796BD"/>
<path opacity="0.5" d="M161.418 178.371L152.952 178.156C152.725 178.15 152.537 178.329 152.532 178.555L152.448 181.832C152.442 182.058 152.621 182.246 152.847 182.252L161.313 182.468C161.539 182.474 161.727 182.295 161.733 182.069L161.817 178.791C161.822 178.565 161.644 178.377 161.418 178.371Z" fill="#4796BD"/>
<path opacity="0.5" d="M160.919 197.94L152.453 197.724C152.227 197.718 152.039 197.897 152.033 198.123L151.95 201.4C151.944 201.626 152.123 201.814 152.349 201.82L160.815 202.036C161.041 202.042 161.229 201.863 161.235 201.637L161.318 198.36C161.324 198.133 161.145 197.945 160.919 197.94Z" fill="#4796BD"/>
<path opacity="0.5" d="M160.421 217.512L151.955 217.297C151.728 217.291 151.54 217.469 151.535 217.696L151.451 220.973C151.445 221.199 151.624 221.387 151.85 221.393L160.316 221.609C160.542 221.614 160.731 221.436 160.736 221.209L160.82 217.932C160.826 217.706 160.647 217.518 160.421 217.512Z" fill="#4796BD"/>
<path opacity="0.5" d="M177.647 226.148L169.181 225.933C168.955 225.927 168.767 226.106 168.761 226.332L168.677 229.609C168.672 229.835 168.85 230.023 169.076 230.029L177.542 230.245C177.769 230.251 177.957 230.072 177.962 229.846L178.046 226.568C178.052 226.342 177.873 226.154 177.647 226.148Z" fill="#4796BD"/>
<path opacity="0.5" d="M206.549 226.885L198.083 226.669C197.857 226.663 197.668 226.842 197.663 227.068L197.579 230.345C197.573 230.571 197.752 230.759 197.978 230.765L206.444 230.981C206.67 230.987 206.859 230.808 206.864 230.582L206.948 227.305C206.954 227.078 206.775 226.89 206.549 226.885Z" fill="#4796BD"/>
<path d="M234.619 228.889L226.15 228.635C225.924 228.628 225.735 228.806 225.728 229.032L225.63 232.31C225.623 232.537 225.801 232.726 226.027 232.732L234.496 232.986C234.722 232.993 234.911 232.815 234.918 232.589L235.016 229.311C235.023 229.084 234.845 228.895 234.619 228.889Z" fill="#4796BD"/>
<path opacity="0.5" d="M263.675 228.34L255.209 228.124C254.983 228.118 254.795 228.297 254.789 228.523L254.705 231.8C254.699 232.026 254.878 232.214 255.104 232.22L263.57 232.436C263.797 232.442 263.985 232.263 263.99 232.037L264.074 228.76C264.08 228.533 263.901 228.345 263.675 228.34Z" fill="#4796BD"/>
<path opacity="0.5" d="M291.071 229.042L282.605 228.826C282.379 228.82 282.191 228.999 282.185 229.225L282.101 232.503C282.096 232.729 282.274 232.917 282.501 232.923L290.967 233.138C291.193 233.144 291.381 232.965 291.387 232.739L291.47 229.462C291.476 229.236 291.297 229.048 291.071 229.042Z" fill="#4796BD"/>
<path d="M316.752 229.692L308.287 229.476C308.06 229.47 307.872 229.649 307.867 229.875L307.783 233.152C307.777 233.378 307.956 233.566 308.182 233.572L316.648 233.788C316.874 233.794 317.062 233.615 317.068 233.389L317.152 230.112C317.157 229.885 316.979 229.697 316.752 229.692Z" fill="#4796BD"/>
<path d="M343.83 230.381L335.365 230.165C335.138 230.16 334.95 230.338 334.945 230.565L334.861 233.842C334.855 234.068 335.034 234.256 335.26 234.262L343.726 234.478C343.952 234.483 344.14 234.305 344.146 234.078L344.23 230.801C344.235 230.575 344.057 230.387 343.83 230.381Z" fill="#4796BD"/>
<path d="M372.934 233.042L364.912 232.801C364.562 232.791 364.27 233.065 364.26 233.415L364.175 236.247C364.165 236.597 364.439 236.888 364.789 236.899L372.811 237.14C373.161 237.15 373.453 236.875 373.463 236.526L373.548 233.694C373.559 233.344 373.284 233.052 372.934 233.042Z" fill="#4796BD"/>
<path d="M446.594 275.68C447.637 275.68 448.647 276.042 449.453 276.703C450.26 277.365 450.811 278.286 451.015 279.308C451.218 280.331 451.061 281.393 450.57 282.313C450.078 283.232 449.283 283.953 448.319 284.352C447.356 284.751 446.284 284.804 445.286 284.502C444.288 284.199 443.426 283.56 442.846 282.692C442.267 281.825 442.006 280.784 442.108 279.746C442.21 278.709 442.669 277.738 443.407 277.001C443.824 276.581 444.321 276.249 444.868 276.022C445.415 275.795 446.002 275.679 446.594 275.68ZM446.594 274.979C445.562 274.979 444.554 275.285 443.696 275.859C442.839 276.432 442.171 277.247 441.777 278.2C441.382 279.153 441.28 280.201 441.481 281.213C441.683 282.224 442.181 283.153 442.911 283.882C443.641 284.611 444.57 285.107 445.582 285.307C446.594 285.507 447.643 285.402 448.595 285.006C449.548 284.61 450.361 283.941 450.933 283.082C451.505 282.224 451.809 281.215 451.807 280.183C451.806 279.499 451.671 278.822 451.409 278.191C451.146 277.559 450.762 276.985 450.278 276.502C449.794 276.018 449.22 275.635 448.587 275.374C447.955 275.113 447.278 274.979 446.594 274.979Z" fill="#4796BD"/>
<path d="M445.196 281.722L445.469 281.358C445.736 281.62 446.093 281.768 446.466 281.773C446.922 281.773 447.281 281.54 447.281 281.172C447.281 280.803 446.949 280.507 446.029 280.507V280.088C446.849 280.088 447.158 279.815 447.158 279.46C447.158 279.104 446.881 278.936 446.475 278.936C446.156 278.946 445.85 279.07 445.615 279.287L445.323 278.936C445.648 278.649 446.065 278.488 446.498 278.481C447.204 278.481 447.728 278.822 447.728 279.419C447.728 279.837 447.422 280.115 446.976 280.265V280.288C447.206 280.312 447.42 280.417 447.58 280.584C447.74 280.75 447.836 280.968 447.85 281.199C447.85 281.845 447.24 282.237 446.512 282.237C446.269 282.247 446.027 282.206 445.8 282.117C445.574 282.029 445.368 281.894 445.196 281.722Z" fill="#4796BD"/>
<path d="M468.125 275.986C469.168 275.986 470.179 276.347 470.985 277.009C471.791 277.67 472.343 278.591 472.546 279.613C472.75 280.636 472.592 281.698 472.101 282.618C471.609 283.537 470.814 284.258 469.851 284.657C468.887 285.057 467.815 285.109 466.817 284.807C465.819 284.504 464.957 283.865 464.378 282.998C463.798 282.13 463.537 281.089 463.64 280.052C463.742 279.014 464.201 278.043 464.938 277.306C465.356 276.886 465.852 276.553 466.399 276.327C466.946 276.1 467.533 275.984 468.125 275.986ZM468.125 275.284C467.094 275.284 466.086 275.59 465.229 276.163C464.371 276.736 463.703 277.55 463.309 278.503C462.914 279.455 462.811 280.503 463.012 281.515C463.213 282.526 463.71 283.455 464.439 284.184C465.168 284.913 466.097 285.41 467.108 285.611C468.119 285.812 469.168 285.709 470.12 285.314C471.073 284.919 471.887 284.251 472.46 283.394C473.033 282.537 473.338 281.529 473.338 280.498C473.339 279.813 473.204 279.135 472.943 278.502C472.681 277.869 472.297 277.294 471.813 276.81C471.329 276.326 470.754 275.942 470.121 275.68C469.488 275.418 468.81 275.284 468.125 275.284Z" fill="#5A5773"/>
<path d="M468.193 279.951C468.193 279.728 468.193 279.446 468.225 279.223H468.193C468.066 279.419 467.92 279.614 467.793 279.81L466.882 280.999H469.345V281.477H466.245V281.094L468.093 278.663H468.772V282.533H468.207L468.193 279.951Z" fill="#5A5773"/>
<path d="M456.246 277.52C456.336 277.432 456.456 277.383 456.581 277.383C456.706 277.383 456.826 277.432 456.916 277.52L459.265 279.878C459.309 279.921 459.344 279.972 459.368 280.028C459.392 280.084 459.404 280.145 459.404 280.206C459.404 280.267 459.392 280.328 459.368 280.384C459.344 280.441 459.309 280.492 459.265 280.534L456.952 282.856C456.909 282.903 456.857 282.941 456.799 282.966C456.741 282.992 456.678 283.005 456.615 283.005C456.552 283.005 456.489 282.992 456.431 282.966C456.373 282.941 456.321 282.903 456.278 282.856C456.232 282.813 456.195 282.762 456.17 282.704C456.145 282.647 456.132 282.584 456.132 282.521C456.132 282.459 456.145 282.396 456.17 282.339C456.195 282.281 456.232 282.229 456.278 282.187L458.263 280.183L456.246 278.189C456.199 278.147 456.162 278.095 456.136 278.037C456.11 277.978 456.097 277.916 456.097 277.852C456.097 277.789 456.11 277.726 456.136 277.668C456.162 277.61 456.199 277.558 456.246 277.515V277.52Z" fill="#5A5773"/>
<path d="M452.24 280.183C452.238 281.197 452.537 282.189 453.099 283.033C453.661 283.876 454.461 284.534 455.397 284.923C456.334 285.312 457.364 285.414 458.359 285.217C459.353 285.019 460.267 284.531 460.984 283.814C461.7 283.098 462.189 282.184 462.386 281.19C462.583 280.195 462.481 279.165 462.092 278.228C461.703 277.292 461.045 276.492 460.202 275.93C459.358 275.368 458.366 275.069 457.353 275.07C455.997 275.072 454.697 275.611 453.738 276.569C452.78 277.528 452.241 278.828 452.24 280.183ZM453.027 280.183C453.025 279.179 453.372 278.205 454.008 277.428C454.644 276.651 455.529 276.118 456.514 275.921C457.499 275.724 458.521 275.874 459.407 276.347C460.294 276.819 460.989 277.584 461.374 278.512C461.759 279.439 461.81 280.472 461.519 281.433C461.228 282.394 460.613 283.224 459.778 283.783C458.943 284.341 457.941 284.592 456.941 284.494C455.942 284.395 455.007 283.953 454.297 283.243C453.893 282.843 453.573 282.366 453.355 281.841C453.137 281.316 453.025 280.752 453.027 280.183Z" fill="#5A5773"/>
<path opacity="0.2" d="M177.327 86.0738H77.3788C76.4082 86.0738 75.6213 86.8606 75.6213 87.8313V95.1753C75.6213 96.1459 76.4082 96.9328 77.3788 96.9328H177.327C178.298 96.9328 179.085 96.1459 179.085 95.1753V87.8313C179.085 86.8606 178.298 86.0738 177.327 86.0738Z" fill="#5A5773"/>
<path d="M321.986 344.727C321.23 341.996 320.739 339.582 320.739 339.582C320.739 339.582 320.771 336.577 319.336 334.369L319.309 333.618L319.095 328.063C319.439 327.04 319.87 326.049 320.384 325.099C321.322 323.314 320.074 316.958 320.074 316.958C320.074 316.958 316.017 308.085 316.7 302.329C317.383 296.574 308.113 277.219 308.113 277.219C308.091 275.32 308.286 273.424 308.696 271.569C308.768 271.179 308.789 270.781 308.76 270.385C308.76 270.335 308.76 270.294 308.76 270.24C308.76 270.24 308.76 270.272 308.76 270.285C308.491 266.52 305.236 259.563 305.236 259.563L305.117 246.072C305.117 246.072 306.715 238.05 303.196 227.505C301.971 223.826 301.161 220.876 300.632 218.59C300.573 218.335 300.514 218.085 300.464 217.848C306.838 216.623 311.669 215.626 311.669 215.626C311.669 215.626 307.366 200.259 304.758 197.641C302.149 195.023 299.818 186.573 299.818 186.573C299.818 186.573 298.092 175.669 300.072 172.386C302.053 169.103 302.144 163.571 302.144 163.571C302.144 163.571 306.816 159.892 307.357 158.321C307.899 156.751 308.764 153.217 308.696 151.374C308.628 149.53 307.958 147.909 308.122 146.93C308.286 145.951 306.542 142.331 307.275 140.555C307.461 140.011 307.547 139.437 307.53 138.862C307.53 138.862 307.53 138.825 307.53 138.812C307.53 138.798 307.53 138.812 307.53 138.789C307.478 137.263 307.278 135.746 306.934 134.259C305.501 133.137 303.847 132.331 302.08 131.896L301.957 131.486L301.639 130.389C301.475 130.288 301.315 130.202 301.156 130.124L301.129 129.728L301.024 128.158L301.639 124.606C302.877 118.391 294.632 117.777 294.632 117.777C294.099 116.851 293.24 116.156 292.223 115.828C290.548 115.309 292.305 125.098 293.102 125.694C293.698 126.15 295.615 129.164 296.539 130.648L296.685 130.889C296.557 131.018 296.436 131.155 296.325 131.299L296.721 133.425L296.781 133.749C296.265 134.444 295.852 135.211 295.556 136.025C295.556 136.025 297.122 137.619 296.894 139.472C296.667 141.325 297.514 143.592 297.555 143.715C297.464 143.615 296.362 142.513 295.319 142.832C294.276 143.151 291.358 144.148 291.358 144.148C291.358 144.148 289.168 144.603 289.387 145.099C289.605 145.596 287.984 147.777 287.984 147.777L281.847 142.39C281.783 142.226 281.715 142.063 281.655 141.89C281.379 141.098 281.174 140.282 281.045 139.454C281.684 139.272 282.31 139.046 282.917 138.775C283.531 138.539 284.079 138.158 284.515 137.664C285.084 136.931 285.161 135.966 285.371 135.074C285.771 133.334 286.737 131.759 287.379 130.093C288.482 127.293 288.773 124.239 288.216 121.282C288.087 120.368 287.742 119.497 287.21 118.742C286.19 117.449 284.419 116.975 283.112 115.965C281.806 114.954 280.909 113.365 279.393 112.623C278.027 111.958 276.388 112.104 274.885 112.413C271.931 113.007 269.115 114.149 266.58 115.778C265.738 116.32 264.814 116.948 263.812 116.807C262.956 116.684 262.305 116.028 261.731 115.4C261.731 115.373 261.731 115.345 261.754 115.318L261.686 115.241C261.113 116.657 260.858 118.182 260.939 119.707C260.939 119.944 260.957 120.181 260.994 120.417C260.994 120.499 260.994 120.581 261.017 120.663C261.021 120.731 261.021 120.8 261.017 120.868C261.019 120.974 261.009 121.079 260.985 121.182C260.871 121.491 260.692 121.772 260.461 122.006C260.29 122.218 260.138 122.443 260.006 122.68C260.006 122.598 260.051 122.516 260.079 122.439C259.721 123.004 259.533 123.66 259.537 124.328C259.523 124.815 259.701 125.288 260.033 125.644C260.341 125.923 260.675 126.172 261.03 126.386C260.937 127.042 260.904 127.705 260.93 128.367C261.013 130.339 261.605 132.256 262.649 133.932C263.693 135.607 265.152 136.984 266.885 137.928L267.104 138.429C267.937 140.392 268.597 142.691 268.429 144.844C268.429 145.004 268.397 145.159 268.374 145.3C268.301 145.382 268.233 145.468 268.169 145.555C268.169 145.555 258.394 146.01 256.013 144.029C253.631 142.049 250.399 149.343 250.399 149.343C250.399 149.343 246.92 150.158 246.196 149.507C245.472 148.856 241.384 149.593 241.384 149.593C239.646 148.166 237.431 147.453 235.187 147.599C233.78 146.611 232.239 145.829 230.611 145.277L230.502 145.241C229.787 145.011 229.029 144.944 228.285 145.045C228.285 145.045 223.326 141.257 221.842 139.176C220.358 137.095 213.374 129.442 213.342 129.41L213.31 129.023L213.191 127.875C212.994 127.912 212.795 127.937 212.595 127.948C212.556 127.836 212.505 127.704 212.445 127.552C212.017 126.45 211.501 125.384 210.901 124.365C210.901 124.365 210.847 122.908 211.256 122.544C211.666 122.179 210.86 116.852 210.86 116.852C210.86 116.852 206.139 106.89 202.546 114.603C202.546 114.603 195.398 119.78 201.777 125.239C201.777 125.239 204.281 126.332 204.664 127.261C204.914 127.866 205.815 129.537 206.421 130.657L206.69 131.158L206.621 131.217L206.749 132.164L206.799 132.533C205.665 133.239 204.905 133.922 205.114 134.404C205.488 135.231 205.758 136.101 205.916 136.995C205.916 136.995 214.84 147.335 216.119 151.847C216.119 151.847 239.476 164.541 247.025 165.224L245.987 172.053C245.987 172.053 245.741 176.151 245.896 177.59C246.051 179.029 245.304 185.672 245.304 185.672C245.304 185.672 244.393 195.42 243.328 196.817C242.263 198.215 242.7 204.025 242.7 204.025C242.544 206.82 242.148 209.597 241.516 212.325C240.555 216.049 241.516 220.575 241.516 220.575C241.516 220.575 238.046 229.449 246.929 223.184C246.929 223.184 251.396 222.729 256.541 222.36C256.541 222.528 256.541 222.697 256.541 222.874C256.541 223.539 256.568 224.24 256.591 225.014C256.714 230.023 256.951 236.902 257.374 242.102C258.13 251.294 261.636 269.42 261.636 269.42L261.986 278.576C261.84 279.444 261.787 280.324 261.827 281.203C261.886 284.433 262.864 287.579 264.645 290.273L265.583 296.356C265.583 296.356 267.404 300.312 267.505 302.73C267.507 302.927 267.491 303.123 267.459 303.317C267.409 303.627 267.394 303.942 267.414 304.255C267.414 307.033 269.353 313.603 269.353 313.603C269.353 313.603 269.713 320.287 270.719 320.637C271.589 320.938 269.722 324.535 269.166 325.573C269.166 325.509 269.135 325.445 269.121 325.381L269.007 325.586C268.82 326.134 268.735 326.711 268.757 327.289C268.718 327.748 268.811 328.209 269.024 328.617C269.236 329.026 269.561 329.366 269.959 329.598C271.907 330.69 272.968 331.619 271.366 332.07C270.775 332.191 270.192 332.343 269.617 332.525L269.526 332.307C269.318 332.409 269.149 332.576 269.045 332.783C268.94 332.99 268.906 333.226 268.948 333.454C268.921 333.941 269.112 334.651 269.631 335.699C271.37 339.223 272.536 340.539 272.536 340.539L273.301 340.42C273.198 340.718 273.059 341.003 272.886 341.267C272.611 341.699 272.237 342.058 271.794 342.314C271.38 342.583 270.915 342.762 270.428 342.838C269.884 342.875 269.355 343.027 268.875 343.284C268.395 343.54 267.974 343.896 267.641 344.327C266.694 345.656 266.134 347.441 268.169 348.912L275.427 351.106C275.427 351.106 287.807 352.235 287.046 349.494C286.286 346.753 285.799 344.349 285.799 344.349C285.782 342.659 285.375 340.995 284.61 339.487C284.477 339.24 284.324 339.004 284.155 338.781L284.588 338.713C284.588 338.713 285.257 332.571 286.409 331.364C286.673 331.082 286.728 330.877 286.659 330.718C286.768 330.381 286.45 330.199 286.04 330.103C286.013 330.185 285.985 330.262 285.963 330.349C285.576 330.282 285.184 330.254 284.792 330.267C284.792 330.267 284.269 327.08 285.526 325.869C285.626 325.732 285.697 325.576 285.734 325.411C285.771 325.245 285.773 325.074 285.74 324.908C285.734 324.469 285.673 324.033 285.557 323.61C285.557 323.61 285.53 323.66 285.512 323.688C284.742 320.81 282.348 316.28 282.348 316.28C282.348 316.28 282.138 313.375 282.894 312.182C283.65 310.989 282.184 296.383 282.184 296.383C282.184 296.383 282.211 289.294 281.182 286.034C280.153 282.774 281.988 278.818 281.988 278.818C281.988 278.818 281.988 278.74 281.956 278.608C281.966 278.592 281.973 278.576 281.979 278.558C281.979 278.558 281.92 278.103 281.819 277.447C281.819 277.447 281.819 277.493 281.819 277.515C281.546 275.649 281.032 272.27 280.69 270.713C280.203 268.5 280.294 257.814 280.294 257.814L281.924 253.189L285.43 260.929L289.236 271.269C289.236 271.269 291.012 273.413 291.135 275.653C291.135 275.762 291.135 275.872 291.135 275.981C291.135 276.222 291.135 276.436 291.135 276.682C291.127 278.008 291.542 279.301 292.319 280.375C292.319 280.375 293.411 285.283 294.859 286.489C296.307 287.696 296.407 290.132 296.407 290.132C296.407 290.132 298.383 297.239 299.235 298.468C299.95 299.507 300.1 302.425 300.145 303.317C300.145 303.481 300.145 303.577 300.145 303.577C300.145 303.577 300.482 306.131 300.555 308.289C300.555 308.553 300.555 308.813 300.555 309.054C300.555 309.054 300.555 309.018 300.555 309C300.576 309.587 300.529 310.176 300.414 310.753C300.414 310.78 300.414 310.816 300.387 310.853C300.387 310.73 300.387 310.607 300.387 310.488C300.089 311.965 299.974 313.473 300.045 314.978C300.1 317.559 300.61 320.596 302.24 322.331C305.063 325.331 306.752 324.876 306.752 324.876C306.752 324.876 305.6 328.805 304.02 329.643C303.961 329.674 303.906 329.712 303.856 329.757C303.856 329.684 303.82 329.607 303.806 329.534C303.639 329.735 303.516 329.969 303.445 330.221C303.373 330.473 303.355 330.736 303.392 330.995C303.342 332.707 304.525 335.435 305.595 336.668C305.983 337.022 306.452 337.276 306.961 337.406C306.883 337.466 306.801 337.521 306.715 337.57C306.541 337.675 306.36 337.77 306.174 337.852C305.919 337.978 305.645 338.061 305.363 338.098C304.82 338.135 304.292 338.286 303.812 338.543C303.332 338.8 302.913 339.156 302.581 339.587C301.634 340.912 301.07 342.697 303.105 344.167L310.367 346.362C310.367 346.362 322.747 347.468 321.986 344.727Z" fill="url(#paint1_linear)"/>
<path d="M275.108 351.12L268.083 348.934C266.111 347.459 266.649 345.674 267.568 344.349C267.883 343.922 268.287 343.568 268.751 343.311C269.216 343.054 269.73 342.9 270.259 342.861C270.727 342.785 271.173 342.608 271.566 342.342C271.999 342.083 272.363 341.724 272.627 341.294C273.101 340.472 273.339 339.534 273.314 338.585C273.314 338.585 280.84 336.063 283.008 338.212C283.395 338.6 283.723 339.044 283.982 339.528C284.726 341.039 285.123 342.697 285.143 344.381C285.143 344.381 285.621 346.785 286.359 349.526C287.096 352.267 275.108 351.12 275.108 351.12Z" fill="#2D293D"/>
<path d="M308.924 346.398L301.894 344.195C299.922 342.719 300.464 340.935 301.379 339.61C301.694 339.182 302.097 338.828 302.562 338.572C303.026 338.316 303.541 338.163 304.07 338.125C304.343 338.088 304.608 338.005 304.853 337.88C305.035 337.799 305.212 337.707 305.381 337.602C307.28 336.459 307.125 333.846 307.125 333.846C307.125 333.846 314.651 331.323 316.823 333.472C317.113 333.763 317.369 334.085 317.588 334.433C318.981 336.641 318.954 339.655 318.954 339.655C318.954 339.655 319.437 342.064 320.17 344.8C320.903 347.537 308.924 346.398 308.924 346.398Z" fill="#2D293D"/>
<path opacity="0.1" d="M283.008 338.194C283.395 338.582 283.723 339.026 283.982 339.51L272.627 341.272C273.101 340.449 273.339 339.512 273.314 338.562C273.314 338.562 280.841 336.045 283.008 338.194Z" fill="black"/>
<path opacity="0.1" d="M317.574 334.433L317.656 336.568C315.999 339.56 307.389 339.25 304.839 337.88C305.022 337.799 305.198 337.707 305.368 337.602C307.266 336.459 307.111 333.846 307.111 333.846C307.111 333.846 314.638 331.323 316.809 333.472C317.099 333.763 317.356 334.085 317.574 334.433Z" fill="black"/>
<path d="M318.576 325.177C318.079 326.126 317.663 327.116 317.333 328.136L317.629 335.794C315.808 339.068 305.686 338.39 304.261 336.705C302.836 335.02 301.211 330.513 302.731 329.675C304.252 328.837 305.363 324.917 305.363 324.917C305.363 324.917 303.729 325.372 300.992 322.367C298.256 319.362 298.766 312.451 299.171 310.784C299.576 309.118 298.889 303.609 298.889 303.609C298.889 303.609 298.839 299.73 298.014 298.5C297.19 297.271 295.283 290.159 295.283 290.159C295.283 290.159 295.192 287.732 293.785 286.517C292.378 285.301 291.317 280.397 291.317 280.397C290.476 279.192 290.077 277.733 290.188 276.268C290.384 273.832 288.344 271.287 288.344 271.287L284.647 260.947L281.241 253.207L279.67 257.833C279.67 257.833 279.597 268.514 280.071 270.727C280.544 272.94 281.355 278.836 281.355 278.836C281.355 278.836 279.561 282.788 280.563 286.048C281.564 289.308 281.542 296.401 281.542 296.401C281.542 296.401 282.98 311.008 282.247 312.2C281.514 313.393 281.728 316.298 281.728 316.298C281.728 316.298 286.031 324.676 284.815 325.887C283.6 327.098 284.109 330.281 284.109 330.281C284.109 330.281 286.841 330.176 285.703 331.387C284.565 332.598 283.95 338.736 283.95 338.736L272.281 340.557C272.281 340.557 271.152 339.241 269.462 335.712C267.773 332.184 269.631 332.502 271.174 332.07C272.718 331.637 271.698 330.704 269.808 329.598C267.919 328.491 268.898 325.846 268.898 325.846C268.898 325.846 271.525 320.988 270.541 320.637C269.558 320.287 269.203 313.603 269.203 313.603C269.203 313.603 266.958 305.726 267.382 303.586C267.805 301.446 265.56 296.374 265.56 296.374L264.65 290.291C260.889 284.386 262.027 278.818 262.027 278.818L261.663 269.411C261.663 269.411 258.248 251.29 257.506 242.093C257.051 236.201 256.791 228.151 256.682 223.125C256.618 220.302 256.595 218.435 256.595 218.435L298.31 212.462C298.31 212.462 298.342 214.397 299.308 218.654C299.822 220.93 300.61 223.89 301.803 227.573C305.217 238.118 303.683 246.14 303.683 246.14L303.815 259.631C303.815 259.631 307.844 268.505 307.189 271.637C306.802 273.494 306.62 275.387 306.647 277.283C306.647 277.283 315.644 296.647 314.993 302.402C314.342 308.157 318.271 317.031 318.271 317.031C318.271 317.031 319.477 323.392 318.576 325.177Z" fill="#575988"/>
<path opacity="0.05" d="M292.688 275.589L305.372 273.399C305.372 273.399 298.452 281.049 292.688 275.589Z" fill="black"/>
<path opacity="0.1" d="M303.05 261.015C303.05 261.015 303.66 265.504 300.96 267.307C300.96 267.307 305.878 266.342 303.05 261.015Z" fill="black"/>
<path opacity="0.1" d="M301.716 246.696C301.716 246.696 291.394 255.879 287.492 255.301C283.59 254.723 301.716 246.696 301.716 246.696Z" fill="black"/>
<path opacity="0.1" d="M277.052 280.316C277.052 280.316 269.021 282.46 268.902 285.725C268.784 288.989 277.052 280.316 277.052 280.316Z" fill="black"/>
<path opacity="0.05" d="M280.381 320.674C280.381 320.674 269.025 323.246 272.326 324.576C275.627 325.905 281.009 326.852 281.009 326.852C281.009 326.852 284.697 326.916 280.381 320.674Z" fill="black"/>
<g opacity="0.05">
<path opacity="0.05" d="M270.104 326.971C269.811 326.8 269.56 326.567 269.368 326.287C269.177 326.008 269.051 325.689 268.998 325.354L268.889 325.564C268.889 325.564 267.919 328.223 269.799 329.315C270.018 329.438 270.218 329.561 270.414 329.684C270.746 329.607 271.115 329.548 271.461 329.443C273.018 328.997 271.994 328.063 270.104 326.971Z" fill="black"/>
<path opacity="0.05" d="M284.792 325.632C285.097 325.327 285.057 324.585 284.829 323.633C284.342 324.407 284.26 325.577 284.287 326.465C284.392 326.153 284.565 325.869 284.792 325.632Z" fill="black"/>
<path opacity="0.05" d="M281.196 277.452C280.818 278.614 280.603 279.823 280.558 281.044C280.745 280.193 281.01 279.361 281.35 278.558C281.35 278.558 281.291 278.144 281.196 277.452Z" fill="black"/>
<path opacity="0.05" d="M307.189 271.369C307.253 271.018 307.276 270.66 307.257 270.303C307.139 271.036 307.066 271.71 307.016 272.302C307.066 271.988 307.125 271.688 307.189 271.369Z" fill="black"/>
<path opacity="0.05" d="M282.247 311.941C282.393 311.7 282.452 310.894 282.452 309.778C282.129 310.652 281.974 311.579 281.997 312.51C282.057 312.311 282.141 312.12 282.247 311.941Z" fill="black"/>
<path opacity="0.05" d="M285.353 330.13C284.638 332.343 284.246 336.136 284.246 336.136L272.577 337.957C272.577 337.957 271.448 336.641 269.767 333.103C269.622 332.794 269.499 332.516 269.403 332.261C268.716 332.612 268.465 333.349 269.472 335.448C271.161 338.977 272.285 340.293 272.285 340.293L283.955 338.471C283.955 338.471 284.592 332.329 285.712 331.118C286.254 330.536 285.876 330.267 285.353 330.13Z" fill="black"/>
<path opacity="0.05" d="M269.194 313.316C269.194 313.316 269.549 320.004 270.532 320.355C270.988 319.226 271.265 318.165 270.824 318.01C269.84 317.66 269.485 310.971 269.485 310.971C269.485 310.971 267.241 303.099 267.664 300.954C268.087 298.81 265.843 293.742 265.843 293.742L264.932 287.664C261.212 281.786 262.355 276.209 262.355 276.209L261.991 266.807C261.991 266.807 258.576 248.686 257.834 239.488C257.379 233.601 257.119 225.547 257.01 220.521C257.01 219.61 256.973 218.809 256.96 218.13L256.627 218.176C256.627 218.176 256.627 220.042 256.709 222.865C256.823 227.874 257.06 235.942 257.538 241.829C258.28 251.026 261.695 269.147 261.695 269.147L262.027 278.544C262.027 278.544 260.884 284.122 264.604 290L265.515 296.083C265.515 296.083 267.75 301.141 267.336 303.29C266.922 305.439 269.194 313.316 269.194 313.316Z" fill="black"/>
<path opacity="0.05" d="M304.557 334.091C303.549 332.752 302.854 331.204 302.522 329.561C301.366 330.686 302.904 334.824 304.257 336.436C305.682 338.13 315.803 338.808 317.62 335.526L317.547 333.677C315.029 336.386 305.9 335.694 304.557 334.091Z" fill="black"/>
<path opacity="0.05" d="M318.867 322.572C318.37 323.522 317.955 324.512 317.624 325.532L317.674 326.898C317.875 326.392 318.166 325.718 318.585 324.917C318.863 324.143 318.976 323.32 318.917 322.499C318.89 322.527 318.881 322.549 318.867 322.572Z" fill="black"/>
<path opacity="0.05" d="M304.789 324.644C305.128 323.883 305.417 323.102 305.654 322.304C305.654 322.304 304.02 322.759 301.284 319.754C299.294 317.568 299.007 313.311 299.185 310.516C298.761 312.182 298.251 319.094 301.006 322.094C302.777 324.057 304.093 324.544 304.789 324.644Z" fill="black"/>
<path opacity="0.05" d="M298.907 303.34C299.149 305.244 299.287 307.159 299.321 309.077C299.357 308.77 299.412 308.466 299.485 308.166C299.909 306.5 299.203 300.995 299.203 300.995C299.203 300.995 299.153 297.112 298.329 295.882C297.505 294.653 295.597 287.541 295.597 287.541C295.597 287.541 295.506 285.119 294.099 283.899C292.692 282.679 291.622 277.793 291.622 277.793C290.778 276.589 290.379 275.129 290.493 273.664C290.689 271.228 288.672 268.687 288.672 268.687L284.943 258.329L281.537 250.589L279.966 255.233C279.966 255.233 279.966 255.807 279.966 256.708L281.241 252.952L284.647 260.692L288.348 271.036C288.348 271.036 290.388 273.582 290.17 276.013C290.058 277.48 290.457 278.941 291.299 280.147C291.299 280.147 292.364 285.055 293.767 286.266C295.169 287.477 295.269 289.909 295.269 289.909C295.269 289.909 297.19 297.021 298.001 298.25C298.811 299.479 298.907 303.34 298.907 303.34Z" fill="black"/>
</g>
<path d="M300.182 124.665L299.59 128.235L299.695 129.806L299.767 130.967L295.743 131.54L295.255 130.721C294.345 129.237 292.501 126.218 291.923 125.763C291.149 125.166 289.437 115.377 291.062 115.896C292.053 116.238 292.883 116.933 293.393 117.849C293.393 117.849 301.375 118.455 300.182 124.665Z" fill="#FFCDD3"/>
<path opacity="0.1" d="M299.767 130.967L295.743 131.54L295.255 130.721C295.776 130.079 296.503 129.638 297.312 129.472C298.122 129.306 298.963 129.426 299.695 129.81L299.767 130.967Z" fill="black"/>
<path d="M300.865 132.847L295.579 134.286L295.433 133.498L295.051 131.372C295.051 131.372 297.054 128.476 300.186 130.461L300.496 131.54L300.865 132.847Z" fill="#DCE6F2"/>
<path d="M214.157 128.362L208.584 131.641C208.584 131.641 208.347 131.185 208.024 130.584C207.441 129.469 206.567 127.789 206.321 127.188C205.948 126.277 203.525 125.157 203.525 125.157C197.347 119.693 204.258 114.526 204.258 114.526C207.723 106.817 212.308 116.802 212.308 116.802C212.308 116.802 213.091 122.116 212.695 122.494C212.299 122.871 212.354 124.315 212.354 124.315C212.94 125.334 213.441 126.4 213.852 127.502C214.052 128.035 214.157 128.362 214.157 128.362Z" fill="#FFCDD3"/>
<path opacity="0.1" d="M214.157 128.362L208.584 131.641C208.584 131.641 208.347 131.185 208.024 130.584C208.802 129.883 211.561 127.461 212.504 127.529C212.958 127.572 213.416 127.572 213.87 127.529C214.052 128.035 214.157 128.362 214.157 128.362Z" fill="black"/>
<path d="M214.803 130.065L208.529 133.462L208.347 132.096L208.219 131.149C208.219 131.149 211.807 127.83 212.905 127.907C213.462 127.964 214.025 127.941 214.576 127.839L214.694 128.991L214.803 130.065Z" fill="#DCE6F2"/>
<path d="M285.576 148.774C285.576 148.774 257.802 152.994 262.947 151.1C266.53 149.78 267.887 147.417 268.087 144.844C268.251 142.691 267.632 140.392 266.803 138.429C266.076 136.694 265.175 135.037 264.113 133.485C264.113 133.485 284.988 120.932 281.15 131.754C280.552 133.392 280.21 135.112 280.135 136.854C280.069 138.583 280.321 140.31 280.877 141.949C281.783 144.614 283.409 146.976 285.576 148.774Z" fill="#FFCDD3"/>
<path opacity="0.1" d="M281.15 131.754C280.552 133.392 280.21 135.112 280.135 136.854C278.191 138.62 275.982 138.593 273.155 138.702C270.979 138.784 268.602 139.404 266.817 138.425C266.09 136.69 265.188 135.033 264.126 133.48C264.126 133.48 284.988 120.932 281.15 131.754Z" fill="black"/>
<path d="M272.344 139.467C278.721 139.467 283.891 134.298 283.891 127.921C283.891 121.544 278.721 116.374 272.344 116.374C265.968 116.374 260.798 121.544 260.798 127.921C260.798 134.298 265.968 139.467 272.344 139.467Z" fill="#FFCDD3"/>
<path opacity="0.1" d="M285.576 148.774C285.576 148.774 257.802 152.994 262.947 151.1C266.53 149.78 267.887 147.417 268.087 144.844C269.421 143.287 272.185 142.113 273.938 141.448C275.554 140.836 277.319 140.739 278.992 141.17C279.651 141.338 280.281 141.602 280.863 141.953C281.774 144.619 283.405 146.979 285.576 148.774Z" fill="black"/>
<path opacity="0.1" d="M300.865 132.847L295.579 134.286L295.433 133.498C295.974 132.692 296.75 132.071 297.656 131.722C298.562 131.372 299.554 131.31 300.496 131.545L300.865 132.847Z" fill="black"/>
<path opacity="0.1" d="M214.803 130.065L208.529 133.462L208.347 132.096C210.582 130.657 214.366 129.123 214.694 128.991L214.803 130.065Z" fill="black"/>
<path opacity="0.1" d="M299.317 218.649C288.581 220.771 273.287 223.585 270.819 222.934C268.77 222.396 262.31 222.71 256.705 223.12C256.641 220.297 256.618 218.431 256.618 218.431L298.333 212.457C298.333 212.457 298.351 214.392 299.317 218.649Z" fill="black"/>
<path d="M309.998 215.699C309.998 215.699 274.653 223.175 270.787 222.16C266.922 221.144 247.371 223.157 247.371 223.157C238.775 229.408 242.126 220.543 242.126 220.543C242.126 220.543 241.174 216.018 242.099 212.293C242.707 209.564 243.088 206.789 243.237 203.998C243.237 203.998 242.818 198.188 243.833 196.79C244.849 195.392 245.732 185.649 245.732 185.649C245.732 185.649 246.447 179.015 246.297 177.567C246.146 176.119 246.374 172.031 246.374 172.031L247.371 165.201C240.086 164.509 217.439 151.788 217.439 151.788C216.196 147.271 207.546 136.927 207.546 136.927C207.393 136.034 207.132 135.164 206.767 134.336C206.125 132.806 214.73 129.369 214.73 129.369C214.73 129.369 221.533 137.068 222.971 139.149C224.41 141.229 229.218 145.022 229.218 145.022C229.939 144.925 230.672 144.994 231.363 145.222C231.402 145.229 231.44 145.24 231.476 145.254C233.06 145.812 234.555 146.596 235.916 147.581C239.394 147.253 241.912 149.584 241.912 149.584C241.912 149.584 245.864 148.851 246.57 149.502C247.275 150.153 250.64 149.347 250.64 149.347C250.64 149.347 253.759 142.04 256.067 144.039C258.376 146.037 267.837 145.577 267.837 145.577C269.034 143.852 272.053 142.531 273.947 141.839C275.563 141.228 277.328 141.131 279.001 141.562C279.727 141.747 280.415 142.055 281.036 142.472L286.992 147.872C286.992 147.872 288.558 145.678 288.358 145.2C288.157 144.722 290.265 144.253 290.265 144.253C290.265 144.253 293.043 143.269 294.099 142.941C295.155 142.613 296.175 143.724 296.262 143.825C296.225 143.702 295.406 141.384 295.62 139.581C295.834 137.778 294.322 136.134 294.322 136.134C297.395 127.666 305.322 134.354 305.322 134.354C305.322 134.354 306.369 138.875 305.659 140.651C304.949 142.427 306.643 146.051 306.488 147.025C306.333 148 306.975 149.63 307.048 151.469C307.121 153.309 306.274 156.796 305.737 158.385C305.199 159.974 300.728 163.626 300.728 163.626C300.728 163.626 300.651 169.162 298.738 172.436C296.826 175.709 298.506 186.623 298.506 186.623C298.506 186.623 300.783 195.078 303.301 197.701C305.818 200.323 309.998 215.699 309.998 215.699Z" fill="#656691"/>
<path opacity="0.1" d="M255.676 153.905C255.676 153.905 254.488 150.745 253.504 150.495C252.526 150.175 251.571 149.79 250.645 149.343L251.223 148.123C251.223 148.123 254.906 148.983 255.526 150.026C256.145 151.068 255.676 153.905 255.676 153.905Z" fill="black"/>
<path opacity="0.1" d="M235.92 147.576C235.761 148.555 227.169 149.757 227.169 149.757L231.363 145.204L231.472 145.241C233.059 145.801 234.558 146.587 235.92 147.576Z" fill="black"/>
<path d="M210.441 136.007C210.869 136.007 211.215 135.66 211.215 135.233C211.215 134.805 210.869 134.459 210.441 134.459C210.014 134.459 209.667 134.805 209.667 135.233C209.667 135.66 210.014 136.007 210.441 136.007Z" fill="#575988"/>
<path d="M211.493 137.519C211.921 137.519 212.267 137.172 212.267 136.745C212.267 136.317 211.921 135.971 211.493 135.971C211.066 135.971 210.719 136.317 210.719 136.745C210.719 137.172 211.066 137.519 211.493 137.519Z" fill="#575988"/>
<path d="M212.518 138.912C212.945 138.912 213.292 138.565 213.292 138.138C213.292 137.71 212.945 137.364 212.518 137.364C212.09 137.364 211.744 137.71 211.744 138.138C211.744 138.565 212.09 138.912 212.518 138.912Z" fill="#575988"/>
<path d="M213.597 140.423C214.024 140.423 214.371 140.077 214.371 139.649C214.371 139.222 214.024 138.875 213.597 138.875C213.169 138.875 212.823 139.222 212.823 139.649C212.823 140.077 213.169 140.423 213.597 140.423Z" fill="#575988"/>
<path d="M304.976 136.681C305.326 136.681 305.609 136.398 305.609 136.048C305.609 135.698 305.326 135.415 304.976 135.415C304.627 135.415 304.343 135.698 304.343 136.048C304.343 136.398 304.627 136.681 304.976 136.681Z" fill="#575988"/>
<path d="M305.126 138.106C305.476 138.106 305.759 137.823 305.759 137.473C305.759 137.124 305.476 136.84 305.126 136.84C304.777 136.84 304.494 137.124 304.494 137.473C304.494 137.823 304.777 138.106 305.126 138.106Z" fill="#575988"/>
<path d="M305.267 139.531C305.617 139.531 305.9 139.248 305.9 138.898C305.9 138.549 305.617 138.265 305.267 138.265C304.918 138.265 304.635 138.549 304.635 138.898C304.635 139.248 304.918 139.531 305.267 139.531Z" fill="#575988"/>
<path opacity="0.1" d="M256.737 180.176C256.641 180.062 279.556 206.82 295.893 190.22C295.911 190.22 269.244 194.887 256.737 180.176Z" fill="black"/>
<path opacity="0.1" d="M244.726 195.005C244.726 195.005 257.816 194.86 259.327 198.566L259.478 202.481C259.114 202.703 258.7 202.829 258.274 202.846C257.849 202.862 257.426 202.77 257.046 202.577C255.68 201.912 247.64 198.201 244.926 200.241L244.726 195.005Z" fill="black"/>
<path d="M244.976 194.996C244.976 194.996 257.497 194.855 258.94 198.393L259.086 202.122C258.738 202.333 258.342 202.452 257.935 202.468C257.527 202.484 257.123 202.396 256.759 202.213C255.471 201.584 247.763 198.042 245.167 199.991L244.976 194.996Z" fill="#656691"/>
<path opacity="0.1" d="M250.777 166.358C252.234 169.397 254.05 172.251 256.186 174.858C258.512 177.746 261.294 180.234 264.422 182.225C264.422 182.225 251.068 168.124 250.777 166.358Z" fill="black"/>
<path opacity="0.1" d="M245.914 151.305C245.914 151.305 248.459 160.639 254.205 163.621L245.914 151.305Z" fill="black"/>
<path opacity="0.1" d="M242.609 152.384C242.545 152.211 240.956 159.906 250.303 163.767C250.303 163.771 246.351 162.597 242.609 152.384Z" fill="black"/>
<path opacity="0.1" d="M299.467 143.87C299.321 143.87 304.116 146.675 305.436 148.009C305.436 148.009 302.222 143.592 299.467 143.87Z" fill="black"/>
<path d="M269.631 138.502C269.818 139.089 270.045 139.731 270.592 140.023C270.936 140.177 271.312 140.245 271.689 140.223C275.213 140.31 278.878 140.323 282.079 138.857C282.679 138.618 283.211 138.235 283.627 137.742C284.178 137.013 284.251 136.048 284.451 135.156C284.838 133.416 285.753 131.841 286.391 130.175C287.463 127.356 287.741 124.298 287.192 121.333C287.068 120.421 286.732 119.551 286.213 118.792C285.23 117.494 283.509 117.021 282.234 116.01C280.959 114.999 280.103 113.406 278.632 112.664C277.307 111.994 275.723 112.14 274.271 112.445C271.41 113.047 268.691 114.193 266.262 115.819C265.447 116.361 264.554 116.989 263.585 116.843C262.733 116.72 262.096 116.033 261.527 115.391C260.901 116.999 260.672 118.734 260.857 120.449C260.9 120.701 260.9 120.958 260.857 121.21C260.748 121.515 260.576 121.795 260.352 122.029C259.523 123.072 259.041 124.684 259.938 125.672C260.329 126.1 260.912 126.318 261.303 126.755C261.986 127.543 261.813 128.718 261.836 129.756C261.812 130.117 261.917 130.475 262.132 130.766C262.326 130.933 262.561 131.047 262.812 131.097C263.063 131.148 263.323 131.132 263.566 131.053C264.052 130.885 264.565 130.815 265.078 130.848C265.631 131.004 266.113 131.345 266.444 131.814C268.133 133.794 268.857 136.039 269.631 138.502Z" fill="#2D293D"/>
<g opacity="0.1">
<path opacity="0.1" d="M283.978 136.827C283.563 137.319 283.032 137.7 282.434 137.937C279.247 139.417 275.568 139.404 272.039 139.303C271.663 139.323 271.287 139.254 270.942 139.103C270.4 138.812 270.168 138.165 269.981 137.578C269.207 135.119 268.483 132.87 266.794 130.867C266.461 130.401 265.98 130.062 265.428 129.906C264.916 129.873 264.403 129.941 263.917 130.106C263.673 130.186 263.413 130.202 263.161 130.153C262.909 130.103 262.674 129.99 262.478 129.824C262.265 129.53 262.161 129.171 262.182 128.809C262.159 127.771 262.332 126.596 261.654 125.813C261.271 125.357 260.689 125.157 260.288 124.725C260.034 124.404 259.872 124.021 259.817 123.615C259.763 123.21 259.818 122.797 259.978 122.421C259.4 123.422 259.182 124.697 259.933 125.517C260.32 125.945 260.907 126.163 261.299 126.605C261.982 127.388 261.809 128.563 261.832 129.601C261.808 129.962 261.913 130.32 262.127 130.612C262.322 130.778 262.556 130.892 262.807 130.943C263.058 130.993 263.318 130.978 263.562 130.898C264.047 130.732 264.561 130.663 265.073 130.694C265.626 130.849 266.108 131.19 266.439 131.659C268.147 133.662 268.866 135.907 269.626 138.37C269.813 138.957 270.041 139.599 270.587 139.895C270.932 140.047 271.308 140.116 271.684 140.096C275.208 140.178 278.874 140.191 282.074 138.73C282.673 138.491 283.204 138.11 283.622 137.619C283.826 137.327 283.98 137.004 284.078 136.663C284.05 136.717 284.018 136.763 283.978 136.827Z" fill="black"/>
<path opacity="0.1" d="M260.884 120.877C261.034 120.704 261.146 120.5 261.212 120.281C261.258 120.031 261.258 119.775 261.212 119.525C261.059 118.116 261.187 116.691 261.59 115.332L261.522 115.254C260.897 116.862 260.667 118.597 260.853 120.313C260.881 120.499 260.892 120.688 260.884 120.877Z" fill="black"/>
</g>
<path opacity="0.1" d="M267.842 145.573C267.842 145.573 282.325 146.939 283.54 144.712L267.842 145.573Z" fill="black"/>
<path opacity="0.1" d="M295.629 138.529C295.629 138.529 303.638 138.233 305.513 141.166L295.629 138.529Z" fill="black"/>
<path d="M470.743 290.655C470.743 290.655 473.443 294.184 469.496 299.516C465.548 304.847 462.297 309.346 463.613 312.669C463.613 312.669 469.568 302.771 474.413 302.63C479.257 302.489 476.075 296.602 470.743 290.655Z" fill="#4796BD"/>
<path opacity="0.1" d="M470.743 290.655C470.98 290.995 471.166 291.368 471.294 291.762C476.025 297.317 478.542 302.502 473.999 302.63C469.764 302.753 464.683 310.325 463.467 312.232C463.508 312.387 463.556 312.539 463.613 312.688C463.613 312.688 469.568 302.789 474.413 302.648C479.257 302.507 476.075 296.602 470.743 290.655Z" fill="black"/>
<path d="M475.765 295.149C475.765 296.392 475.624 297.399 475.451 297.399C475.278 297.399 475.141 296.392 475.141 295.149C475.141 293.906 475.314 294.494 475.487 294.494C475.66 294.494 475.765 293.906 475.765 295.149Z" fill="#FFD037"/>
<path d="M477.486 296.634C476.393 297.226 475.442 297.585 475.36 297.435C475.278 297.285 476.097 296.679 477.181 296.069C478.265 295.459 477.841 295.905 477.928 296.069C478.014 296.233 478.574 296.037 477.486 296.634Z" fill="#FFD037"/>
<path d="M456.483 290.655C456.483 290.655 453.783 294.184 457.726 299.516C461.669 304.847 464.929 309.346 463.613 312.669C463.613 312.669 457.658 302.771 452.813 302.63C447.969 302.489 451.151 296.602 456.483 290.655Z" fill="#4796BD"/>
<path opacity="0.1" d="M456.483 290.655C456.246 290.995 456.06 291.368 455.932 291.762C451.201 297.317 448.684 302.502 453.228 302.63C457.462 302.753 462.539 310.325 463.759 312.232C463.718 312.387 463.67 312.539 463.613 312.688C463.613 312.688 457.658 302.789 452.813 302.648C447.969 302.507 451.151 296.602 456.483 290.655Z" fill="black"/>
<path d="M451.461 295.149C451.461 296.392 451.602 297.399 451.775 297.399C451.948 297.399 452.085 296.392 452.085 295.149C452.085 293.906 451.912 294.494 451.739 294.494C451.566 294.494 451.461 293.906 451.461 295.149Z" fill="#FFD037"/>
<path d="M449.74 296.634C450.833 297.226 451.784 297.585 451.866 297.435C451.948 297.285 451.129 296.679 450.045 296.069C448.961 295.459 449.38 295.905 449.298 296.069C449.216 296.233 448.647 296.037 449.74 296.634Z" fill="#FFD037"/>
<path opacity="0.1" d="M463.608 339.673C479.199 339.673 491.837 337.735 491.837 335.344C491.837 332.952 479.199 331.014 463.608 331.014C448.018 331.014 435.38 332.952 435.38 335.344C435.38 337.735 448.018 339.673 463.608 339.673Z" fill="#4796BD"/>
<path d="M478.142 307.907L478.005 309.009L477.819 310.566L477.741 311.217L477.55 312.774L477.468 313.425L477.277 314.978L475.119 332.689C474.923 334.269 472.341 335.503 469.227 335.503H457.999C454.88 335.503 452.303 334.269 452.112 332.689L449.945 314.978L449.758 313.425L449.681 312.774L449.485 311.217L449.408 310.566L449.216 309.009L449.084 307.907C448.975 306.996 450.373 306.259 452.135 306.259H475.109C476.853 306.259 478.256 307.01 478.142 307.907Z" fill="#65617D"/>
<path d="M478.005 309.009L477.814 310.566H449.403L449.216 309.009H478.005Z" fill="#9D9CB5"/>
<path d="M477.737 311.212L477.55 312.774H449.676L449.485 311.212H477.737Z" fill="#9D9CB5"/>
<path d="M477.463 313.421L477.277 314.978H449.945L449.754 313.421H477.463Z" fill="#9D9CB5"/>
<defs>
<linearGradient id="paint0_linear" x1="277.653" y1="306.892" x2="277.653" y2="61.7879" gradientUnits="userSpaceOnUse">
<stop stop-color="#808080" stop-opacity="0.25"/>
<stop offset="0.54" stop-color="#808080" stop-opacity="0.12"/>
<stop offset="1" stop-color="#808080" stop-opacity="0.1"/>
</linearGradient>
<linearGradient id="paint1_linear" x1="85041.4" y1="192365" x2="80143" y2="64855.7" gradientUnits="userSpaceOnUse">
<stop stop-color="#808080" stop-opacity="0.25"/>
<stop offset="0.54" stop-color="#808080" stop-opacity="0.12"/>
<stop offset="1" stop-color="#808080" stop-opacity="0.1"/>
</linearGradient>
</defs>
</svg>
